<?xml version="1.0" encoding="utf-8"?>
<!-- Generator: Adobe Illustrator 16.0.0, SVG Export Plug-In . SVG Version: 6.00 Build 0)  -->
<!DOCTYPE svg PUBLIC "-//W3C//DTD SVG 1.1//EN" "http://www.w3.org/Graphics/SVG/1.1/DTD/svg11.dtd">
<svg version="1.1" id="Layer_1" xmlns="http://www.w3.org/2000/svg" xmlns:xlink="http://www.w3.org/1999/xlink" x="0px" y="0px"
	 width="1400px" height="700px" viewBox="0 0 1400 700" enable-background="new 0 0 1400 700" xml:space="preserve">
<g>
	<path id="US-Mainland" fill="none" stroke="#000000" d="M1034.488,299.701l0.203-0.659l4.311-0.062l3.072,0.97l2.102,0.323
		l0.969-2.102l-1.455-2.102v-1.778l-2.424-2.102l-2.102-5.496l1.293-5.335l-0.162-2.102l-1.293-1.293c0,0,1.455-1.617,1.455-2.264
		s0.484-2.102,0.484-2.102l1.941-1.293l1.939-1.617l0.484,0.971l-1.455,1.616l-1.293,3.719l0.324,1.131l1.777,0.323l0.484,5.497
		l-2.102,0.97l0.324,3.557l0.484-0.162l1.133-1.939l1.615,1.778l-1.615,1.293l-0.324,3.396l2.586,3.395l3.881,0.484l1.617-0.808
		l3.236,4.183l1.357,0.536l0.697,0.31l0.145,1.947l-0.768,3.098l-1.586,4.183l-0.445,5.449l1.469,4.641l2.164-1.916l1.828-4.979
		l-0.461-3.39l0.418-4.586l2.92-3.779l0.77-3.218l-0.496-0.557l2.008-4.023l0.227-4.864l-0.227-0.714l-2.264-7.354l-0.971,0.484
		l-3.557-2.425l-1.777-4.688l-1.939-3.557l-2.264-0.97l-2.102-3.557l0.498-2.102l0.512,0.504l1.092,2.245l3.232,2.909l4.85,2.264
		l4.043,0.646l0.16,1.455l-0.807,0.97l0.322,2.748h0.809l2.102-2.425l0.809-4.85l2.748-4.042l3.072-6.466l1.131-5.497l-0.646-1.131
		l-0.162-9.377l-1.617-3.395l-1.131,0.809l-2.748,0.323l-0.484-0.485l1.131-0.97l2.102-1.94l0.063-1.094l0.541-0.085l1.174,0.532
		l4.043-1.131l5.818-1.94l2.588-0.97l7.113-5.335l3.879-2.91l3.395-3.557l-4.203-1.616l-1.293,1.455l-2.91,2.748l-7.92,3.88
		l-2.264-0.162l-1.617-0.646l-1.131,0.646l-2.264,2.587l-1.455,1.293l-1.293,0.323l-0.324-1.293l1.939-1.778l-0.795-1.679
		l1.014,0.23l4.955-3.401l3.557-3.233l1.939-2.102l0.809,0.646l2.748-1.455l5.174-1.131l7.045-3.491l0.877-0.228l2.908-0.97
		l2.426-1.939l1.131-1.778l1.295,0.161l2.91-1.536l0.52-0.373l2.066-1.001l-0.486-2.263l0.809-1.455l2.91-1.455l0.809,3.071
		l-0.484,1.778l-2.426,1.455v0.97l1.939-1.454l3.881-4.527l3.879-1.939l4.203-1.455l-0.322-2.425l-0.971-2.91l-1.939-2.425
		l-1.777-0.809l-2.102,0.162l-0.486,0.485l0.971,1.293l1.455-0.809l2.102,1.617l0.809,2.748l-1.779,1.778l-2.264,0.97l-3.557-0.485
		l-3.879-5.981l-2.264-2.586h-1.777l-1.133,0.808l-1.939-2.586l0.324-1.455l2.424-5.173l-2.889-4.413l-0.566-0.492l0.869-1.076
		l1.09-3.291l0.373-1.119l1.123-6.26l0.162-4.365l1.455-1.293l-0.971-3.233l3.072-3.557l1.617,1.455l1.293-0.484l5.334-3.072
		l0.324-2.909l2.91-0.485l1.615-2.587l-0.162-1.616l-0.322-3.071l0.809-1.294l-0.324-1.131l-1.293-1.455l2.102-1.294l1.779,3.233
		l1.453-0.323l0.324,1.293v1.617l1.939,0.161l0.486-2.748l0.484-0.646l-1.617-1.455l0.971-1.455l2.424-1.455l0.971-1.454
		l1.777-0.162c0,0,0.324,2.102,0.971,2.102s1.293,0,1.293,0l4.85-5.496l3.396-3.072l1.939-0.646l2.102-4.688v-1.94l-2.264-3.718
		l-1.939-2.102l-2.748,0.161l0.484,1.132l-0.162,0.485h-0.809l-2.91-2.264l-0.16-4.85l-0.809-1.94h-5.982l-9.053-29.907l-1.939-0.97
		l-5.98-2.425l-1.455-0.162l-1.779,1.778l-4.041,2.91v0.97l-0.809,0.809l-2.748-0.646l-1.293-2.264v-1.131l-1.293-0.162h-1.295
		l-2.102,4.203l-2.908,8.892l-1.779,4.85l0.162,4.85l0.162,1.455l-0.809,2.748l-0.809,0.971v5.981l1.939,2.425l-1.455,4.041
		l-2.586,4.688l-0.809,5.496v2.587l-1.514-0.41l-1.42,0.118l-0.857,0.459l-0.896-0.006l-0.646,1.617l-0.646-0.485l-0.971-0.97
		l-1.455,1.939l-0.049,5.032l-0.92,0.302l-26.248,6.748l-0.621,0.396l-7.566,2.071l-4.525,1.455l-3.234-0.162l-5.496,1.294
		l-3.08,1.246l-2.416,1.825l-2.102,2.425l-2.748,3.718l-2.91,4.527l-1.455,2.909l-0.646,0.809l-5.82,5.496l0.162,2.587l0.809,1.132
		l1.777,0.809h1.779v1.454l-1.133,2.102l0.324,1.455l1.455,2.102l-0.162,2.264l-1.939,1.132h-2.102l-1.617,1.939l-1.777,3.233
		l-2.102,1.778l-5.174,0.484l-2.586,1.132l-2.102,1.294l-1.617-0.162l-1.939-1.293l-6.305,0.161l-3.234,0.485l-4.041,1.293
		l-4.365,1.455l-2.91,1.778l1.941,6.144l1.777,0.161l1.293,3.071l0.162,0.971l-1.131,0.97l-2.102,2.748l-0.486,1.616l-1.939,1.778
		l-1.777,1.132l-0.971,1.617l-1.293,1.131l-1.428,1.126l-1.006,0.519l-5.488,5.631l-1.293,0.484l-4.203,3.009l-1.02-0.11
		l-6.094,4.053l-3.879,2.264l-3.396,3.719l-4.041,3.879l-3.232,0.809l-2.91,0.485l-5.496,2.586l-2.102,0.162l-3.395-3.071
		l-5.174,0.646l-2.586-1.455l-2.383-1.351l-1.15-0.325l0.137-0.588l0.162-1.454l2.102-3.719l2-1.737l-0.221-5.053l1.596-1.597
		l1.092-0.343l0.221-3.557l1.537-3.031l1.051,0.606l0.162,0.646l0.807,0.162l1.941-0.971l-0.324-9.537l-3.232-8.245l-2.264-9.053
		l-2.426-3.233l-2.586-1.778l-1.617,1.132l-3.879,1.778l-1.939,5.012l-2.748,3.718l-1.133,0.646l-1.455-0.646
		c0,0-2.586-1.455-2.424-2.102c0.16-0.646,0.484-5.012,0.484-5.012l3.395-1.293l0.809-3.396l0.646-2.586l2.426-1.617l-0.324-10.022
		l-1.617-2.264l-1.293-0.808l-0.809-2.102l0.809-0.809l1.617,0.323l0.162-1.616l-2.426-2.264l-1.293-2.587h-2.586l-4.527-1.454
		l-5.496-3.396h-2.748l-0.646,0.646l-0.971-0.484l-3.072-2.264l-2.908,1.778l-2.91,2.264l0.322,3.557l0.971,0.323l2.102,0.484
		l0.484,0.809l-2.586,0.809l-2.586,0.323l-1.455,1.778l-0.324,2.102l0.324,1.616l0.322,5.496l-3.557,2.102l-0.646-0.161v-4.203
		l1.293-2.425l0.646-2.425l-0.807-0.809l-1.941,0.809l-0.969,4.203l-2.748,1.132l-1.779,1.939l-0.162,0.97l0.646,0.809l-0.646,2.587
		l-2.262,0.484v1.132l0.807,2.425l-1.131,6.144l-1.617,4.041l0.646,4.688l0.486,1.132l-0.809,2.425l-0.324,0.808l-0.322,2.749
		l3.557,5.981l2.91,6.466l1.455,4.85l-0.809,4.688l-0.971,5.981l-2.424,5.173l-0.324,2.749l-3.26,3.085l-1.023,0.794l-2.83,1.617
		l-2.102,1.939l-1.131,0.324l-1.455-0.971l-3.072-0.89l-0.859,0.194l-0.271-0.921l-0.809-2.587l-1.293-3.718l-1.617-1.778
		l-1.455-2.587l-0.232-5.489l-0.299-1.078l0.369-2.971l-1.615-4.526l-0.646-6.143l-1.133-2.425l0.971-3.072l0.809-2.909l1.455-2.587
		l-0.648-3.395l-0.646-3.557l0.486-1.778l1.939-2.425l0.162-2.749l-0.809-1.293l0.646-2.587l0.484-3.232l2.748-5.658l2.91-6.79
		l0.162-2.263l-0.324-0.971l-0.807,0.485l-4.203,6.305l-2.75,4.041l-1.939,1.778l-0.809,2.264l-1.455,0.809l-1.131,1.939
		l-1.455-0.323l-0.162-1.778l1.295-2.425l2.102-4.688l1.777-1.616l1.102-2.292l0.566-0.892l3.182-7.001l0.971-4.042l1.939-4.364
		l0.809-0.162l1.131,1.617h0.646l4.527-2.425l1.455,1.616l0.484,0.162l1.293-1.132l1.133-3.072l2.424-0.808l6.951-0.646l1.941-2.587
		l5.172-0.162l5.82,1.294h1.777l3.234-1.455l2.264,0.161l2.102-0.646l3.717,0.485l0.809,0.323l1.293-0.323l-1.293-0.97l-1.293-0.647
		l-3.232-3.071v-6.951l-1.455-0.485l-1.133,1.132l-6.143,1.617l-1.939,0.484l-2.91-0.809l-0.484-0.323v-5.658l-1.455-0.161
		l-2.588,1.293l-4.525,1.94l-6.629,0.323l-3.395,1.132l-4.041,3.556l-1.617,0.971h-1.131l-1.293,0.808l-1.617-0.484l-1.617-1.294
		l-1.455,0.971l-3.879,0.161l-2.748-2.748l-1.455-3.071l-1.455-1.132l-3.234-0.97h-2.262l-1.295-1.294l-3.557,2.91l-0.969,1.132
		l-0.809-0.485l0.324-2.586l2.424-3.233l0.484-2.425l2.264-0.809l1.455-3.071l3.719-0.97l0.322-0.971l-1.131-1.131l-4.688,0.484
		l-4.365,2.425l-2.264,2.264l-1.293,1.778l-1.779,0.809l-1.939,2.909l-0.162,1.294l-4.363,2.102l-2.426,1.939l-5.98,0.97
		l-0.648,0.646v0.971l-3.555,2.263l-2.75,0.809l-0.715,0.58l-1.018,0.422l-0.529,1.262l-1.133-0.162l-0.646-1.132l-2.748-0.808
		l-1.131,0.161l-1.779,0.97l-0.969-0.646l0.646-1.939l1.939-3.072l1.131-1.131l-1.939-1.455l-2.102,0.808l-2.91,1.94l-7.436,3.233
		l-2.91,0.646l-2.91-0.485l-0.982-0.878l-0.434-0.553l3.842-2.934l1.293-0.162l4.525-5.012l1.779-0.808l2.264-3.88l2.424-3.557
		l3.072-2.587l4.773-2.007l9.246-4.061l3.939-1.838l0.611-2.279l-4.439,0.371l-0.713,1.084h-0.646l-1.779-3.071l-8.891,0.323
		l-0.971,0.808h-0.969l-0.486-1.293l-0.809-1.778l-2.586,0.485l-3.232,3.233l-1.617,0.808h-3.072l-2.586-0.97v-2.102l-1.293-0.161
		l-0.484,0.484l-2.588-1.293l-0.484-2.91l-1.455,0.485l-0.484,0.97l-2.426-0.485l-5.334-2.425l-3.881-2.586h-2.91l-1.293-0.971
		l-2.264,0.647l-1.131,1.131l-0.324,1.294h-4.85v-2.102l-6.305-0.323l-0.322-1.455h-4.85l-1.617-1.617l-1.455-6.143l-0.809-5.497
		l-1.939-0.808l-2.264-0.485l-0.646,0.162l-0.322,8.244l-30.133-0.035l-1.098-0.047l-28.424-0.564l-18.59-0.646l-26.512-1.293
		l-24.947-1.885l-1.283-0.481l-30.676-2.808l-29.26-3.557l-29.26-4.041l-32.332-5.335l-18.43-3.395l-32.724-6.933l-1.124-0.161
		l-12.996-2.528l-0.72-0.401L388.48,57.46l-22.956-5.658l-20.046-5.658l-8.568-1.94l-9.7-2.748L322.846,40l-1.132,0.809
		l-0.323,0.809l2.425,4.85l1.132,2.587l-1.778,3.557v2.263l0.646,1.455l-0.808,1.778l0.485,3.233l0.97,1.293l-0.162,1.293
		l-1.455,0.162l-0.646-1.94l-1.132-2.425l-1.778-1.454l0.323-2.103l2.264-0.484l-0.324-1.778l-0.323-1.132l-2.102,1.293
		l-1.293,1.132v2.425l-2.263,0.162l-3.395-0.97l-2.91-1.455l-3.071-0.646l-4.527-2.102l-3.233-1.94l-2.749-2.587l-2.425-2.909
		l-2.102-0.485l-2.263,9.376l1.778,3.233v7.922l-0.646,2.909l1.455,7.113l2.749,2.748l-4.365,0.647l-0.162,3.718l2.587,1.132
		l-1.617,4.041l-2.748,0.323l-0.324,2.91l2.264,2.91l-2.102,2.586l-2.264,6.467l-3.233,10.023l-3.233,6.466l-5.011,14.064
		l-6.467,13.58l-8.083,12.609l-1.94,2.909l-0.808,8.568l-1.293,5.981l2.708,3.527l-0.481,0.963l-1.58,4.725l-0.162,7.437
		l-5.173,11.801l-3.071,2.587l-0.324,1.132l-1.778,0.808l-1.455,4.203l-0.809,3.233l2.749,4.203l1.617,4.203l1.131,3.557
		l-0.323,6.467l-1.778,3.071l-0.646,5.819l-0.97,3.719l1.778,3.88l2.748,4.526l2.264,4.85l1.293,4.042l-0.323,3.233l-0.323,0.484
		v2.102l5.658,6.305l-0.485,2.425l-0.646,2.264l-0.646,1.939l0.162,8.245l2.102,3.718l1.94,2.587l2.748,0.485l0.97,2.748
		l-1.132,3.557l-2.102,1.616h-1.131l-0.809,3.88l0.485,2.91l3.233,4.364l1.617,5.335l1.455,4.688l1.293,3.071l3.395,5.82
		l1.455,2.586l0.485,2.91l1.617,0.97v2.425l-0.809,1.94L271.6,355.4l-0.485,1.939l2.425,2.748l4.203,0.485l4.527,1.778l3.88,2.102
		h2.91l2.91,3.071l2.586,4.85l1.131,2.264l3.88,2.102l4.85,0.809l1.455,2.102l0.647,3.233l-1.455,0.646l0.323,0.97l3.233,0.809
		l2.748,0.161l2.91,4.688l3.88,4.203l0.808,2.263l2.586,4.203l0.324,3.232v9.377l0.485,1.779l10.023,1.453l19.723,2.75l13.907,0.975
		l1.006,0.746l-2.627,2.158l-0.323,1.455l0.485,0.971l18.914,10.668l12.125,7.6l14.711,8.566l16.813,10.023l12.286,2.426
		l25.127,2.705l1.605,0.801l15.461,1.99l1.293-10.023l16.65,2.588l12.457,1.617l0.961-0.002l1.94,0.486l2.587,2.908l1.455,4.365
		l4.688,2.264l1.293,3.234l7.113,7.92l1.293,1.617l5.012,2.102l1.132,2.102l1.616,0.969l0.485,2.75l3.233,6.465v8.084l2.264,4.688
		l7.436,7.76l5.174,2.102l1.777,1.939v0.646l3.881,2.264l1.939,0.646l1.777,1.133l2.588,0.969l2.424-2.424l4.365-6.143l0.971-3.719
		l2.262-3.234l3.557-1.453l4.527-1.779l3.072,2.264l7.436,0.646l6.789,1.131l2.588,2.102v1.133l2.586,3.07l5.98,5.336l0.162,1.455
		l1.779,1.939l0.809,4.203l5.334,12.285l-0.162,1.941l4.203,2.586l3.557,6.629l3.395,4.363l3.234,1.295l1.615,2.262l-1.293,4.365
		l0.646,0.971l1.293,0.646l-0.322,3.395l-0.646,0.646l0.646,2.264l3.232,1.939l1.293,6.467l2.102,3.879l7.6,3.396l5.172,1.131
		l4.203,3.072l3.234,0.646l1.293-0.486l5.496,1.133l5.658,3.879l3.072-1.939l0.969-1.455l-1.777-2.748l-0.971-6.143l-1.777-6.951
		l-0.809-2.426l0.809-4.527l1.131-3.879l1.293-4.527l1.455-5.496l-2.264-1.939l0.971-1.939l4.041-0.324l3.881-5.496l3.395-0.646
		l5.82-3.557l1.778-1.455l6.305-3.395l5.658-2.426l5.336-3.232l2.748-2.102l5.658-5.334l1.293-0.809l2.102-1.455l2.586-1.939
		l0.971-1.941l9.861-4.525l5.664-1.586l0.643-0.127l4.686-1.521l8.084-0.322l10.346,3.557l6.467,1.131l3.717-1.455l3.234,1.133
		l3.232,0.969l0.809-2.102l-3.232-1.131l-2.588,0.484l-2.748-1.617c0,0,0.162-1.293,0.809-1.455c0.646-0.16,3.072-0.969,3.072-0.969
		l1.777,1.455l1.779-0.971l3.232,0.646l1.455,2.426l0.324,2.264l4.525,0.322l1.779,1.779l-0.809,1.615l-1.293,0.809l1.615,1.617
		l8.406,3.557l3.557-1.293l0.971-2.426l2.586-0.646l1.779-1.455l1.293,0.971l0.809,2.91l-2.264,0.807l0.646,0.646l3.395-1.293
		l2.264-3.395l0.809-0.484l-2.102-0.324l0.809-1.615l-0.162-1.455l2.102-0.486l1.131-1.293l0.646,0.809c0,0-0.16,3.072,0.646,3.072
		c0.809,0,4.203,0.646,4.203,0.646l4.043,1.939l0.969,1.455h2.91l1.133,0.971l2.262-3.072v-1.455h-1.293l-3.395-2.748l-5.82-0.809
		l-3.232-2.264l1.131-2.748l2.264,0.324l0.162-0.646l-1.779-0.971v-0.484h3.234l1.777-3.072l-1.293-1.939l-0.322-2.748l-1.455,0.16
		l-1.941,2.102l-0.646,2.588l-3.07-0.646l-0.971-1.779l1.777-1.939l2.021-1.777l0.756-0.516l1.104-0.779l2.586-4.203l1.779,0.809
		l6.789-1.939l2.102,0.322l1.455,0.809h5.174l0.254-1.256l1.039-0.199h2.748l0.646,0.162l1.293-2.748l1.455-4.365l2.264,0.646
		l3.072,5.982v0.969l-2.75,1.941l2.75,0.322l5.541-2.572l0.678,0.113l3.48-0.611l5.98-2.102l5.982-0.486l4.365-0.646l7.598,1.779
		l8.082,3.879l1.617,1.455l2.91,1.133l1.617,1.939l0.322,2.748l3.232-1.293h3.881l3.557-1.941l3.719-3.555l3.07,0.16l0.486-1.131
		l-0.809-0.971l0.16-1.939l4.043-0.809h2.586l2.91,1.455l4.203,1.455l2.424,3.719l2.75,0.969l1.131,3.396l3.395,1.615l1.617,2.588
		l1.939,0.646l5.174,1.293l1.293,3.07l3.072,3.719v9.539l-1.455,4.688l0.322,2.748l1.293,4.85l1.779,4.041l0.809-0.484l1.455-4.525
		l-2.588-0.971l-0.322-0.646l1.615-0.646l4.527,0.969l0.162,1.617l-3.234,5.496l-2.102,2.426l3.557,3.717l2.588,3.072l2.908,5.336
		l2.91,3.879l2.102,5.012l1.779,0.322l1.617-2.102l1.777,1.133l2.586,4.041l0.646,3.557l3.072,4.365l0.809-1.293l3.879,0.322
		l3.557,2.264l3.395,5.174l0.809,3.395l0.324,2.91l1.131,0.969l1.293,0.486l2.426-0.971l1.455-1.617l3.879-0.162l3.072-1.453
		l2.748-3.234l-0.484-1.939l-0.324-2.426l0.646-1.939l-0.322-1.939l2.424-1.293l0.324-3.395l-0.646-1.779l-0.486-11.963
		l-1.293-7.598l-4.525-8.244l-3.557-5.82l-2.588-5.336l-2.908-2.908l-2.91-7.438l0.809-1.293l1.131-1.293l-1.617-2.91l-4.041-3.719
		l-4.85-5.496L996,505.582l-5.334-9.377l-3.73-9.742l-2.266-7.316l-0.02-0.891l-0.775-6.299l2.264-10.023l1.455-4.203l-0.484-2.586
		l3.334-6.244l-0.51-1.352l0.57-0.973l2.102-1.293l5.012-5.496l-0.971-3.234l2.91-0.162l3.557-3.395l1.617-0.809l2.264-3.395
		l2.748-2.748l2.102-3.557l2.424-0.646l1.133-2.748l1.615-0.809l0.486-6.305l2.586-6.143l5.422-5.458l0.279-0.804l5.453-1.336
		l4.688-0.485l0.486-2.425l1.939-6.467l3.395-4.688l6.467-5.335l5.174-2.425l2.748-0.646l1.131,0.484h1.293l3.072-4.85l1.939-3.557
		l-1.293,0.485l-2.264,2.263l-0.646-1.616h-4.203l1.939-6.305l-0.807-1.293h-1.941v-0.971l-0.322-1.293l1.615,1.293l1.455,0.162
		l2.426,0.323l3.719-1.616l1.293-2.91l0.646-2.102l2.586-1.294l0.324-4.203l-0.809-0.646l2.424-0.161l-0.646-2.264l-2.424-2.425
		l-3.557-6.467l-1.711-4.698l-0.92-0.925l-3.607-6.012l-5.801,1.686l-1.572-1.494l2.553-1.381l-0.492-2.524l-1.773-1.785
		l-0.121-1.412l-2.281-1.543l-0.088-1.615l2.693,0.095l0.223-1.385l-1.23-0.79l0.479-1.93l-1.373-1.103l0.439-4.69l-0.869-1.2
		l-3.189-0.402l-2.152-2.089l-4.857-0.941L1034.488,299.701z M997.215,611.551l2.426-0.646l1.293-0.244l1.455-2.344l2.344-1.615
		l1.293,0.484l1.699,0.322l0.402,1.051l-3.475,1.213l-4.203,1.455l-2.344,1.213L997.215,611.551z M1010.715,606.539l1.213,1.051
		l2.748-2.102l5.334-4.203l3.719-3.881l2.506-6.627l0.969-1.697l0.162-3.396l-0.727,0.486l-0.971,2.828l-1.455,4.607l-3.232,5.254
		l-4.365,4.203l-3.395,1.939L1010.715,606.539z M1065.275,365.099l2.586-2.506l3.152-2.587l1.535-0.646l0.162-2.021l-0.646-6.144
		l-1.455-2.344l-0.646-1.859l0.729-0.242l2.748,5.496l0.404,4.445l-0.162,3.396l-3.395,1.536l-2.83,2.425l-1.131,1.212
		L1065.275,365.099z M1129.25,207.49l2.172-0.687l0.457-1.715l1.029,0.115l1.029,2.286l-1.258,0.457l-3.887,0.114L1129.25,207.49z
		 M1119.877,208.29l2.285-2.629h1.602l1.828,1.485l-2.4,1.029l-2.172,1.028L1119.877,208.29z M1131.557,141.117l1.535-1.536
		l1.375,1.051l0.564,2.425l-1.697,0.89L1131.557,141.117z M1138.266,135.217l1.777,1.858c0,0,1.293,0.081,1.293-0.242
		s0.242-2.021,0.242-2.021l0.891-0.809l-0.809-1.778l-2.021,0.728L1138.266,135.217z M1049.594,297.928l1.131,2.506l0.162,1.778
		l1.133,1.859c0,0,0.889-0.89,0.889-1.213s-0.729-3.071-0.729-3.071l-0.727-2.344L1049.594,297.928z M810.893,115.697l1.828-2.058
		l2.172-0.8l5.373-3.887l2.287-0.571l0.457,0.457l-5.145,5.145l-3.314,1.943l-2.059,0.914L810.893,115.697z M897.066,147.826
		l0.646,2.506l3.234,0.161l1.293-1.212c0,0-0.082-1.455-0.404-1.617c-0.324-0.161-1.617-1.859-1.617-1.859l-2.182,0.243
		l-1.617,0.161l-0.322,1.132L897.066,147.826z M313.39,45.979l2.021-0.162l0.485,1.374l1.536-1.616h2.344l0.809,1.536l-1.536,1.697
		l0.646,0.809l-0.728,2.021l-1.374,0.404c0,0-0.889,0.08-0.889-0.243s1.455-2.586,1.455-2.586l-1.698-0.566l-0.323,1.455
		l-0.728,0.646l-1.536-2.263L313.39,45.979z M686.503,600.961l-0.566-7.113l-2.748-7.193l-0.566-7.033l1.535-8.244l3.314-6.871
		l3.477-5.414l3.152-3.557l0.646,0.242l-4.77,6.627l-4.365,6.549l-2.02,6.627l-0.324,5.174l0.889,6.143l2.588,7.193l0.484,5.174
		l0.162,1.455L686.503,600.961z M278.066,370.676l1.293,1.535l-0.162,1.294l-3.233-0.081l-0.566-1.213l-0.646-1.454L278.066,370.676
		z M280.006,370.676l1.212-0.646l3.557,2.102l3.072,1.212l-0.889,0.646l-4.527-0.242l-1.616-1.616L280.006,370.676z
		 M300.699,390.479l1.778,2.344l0.808,0.97l1.536,0.566l0.566-1.455l-0.97-1.778l-2.667-2.021l-1.051,0.161V390.479z
		 M299.244,399.128l1.778,3.151l1.212,1.941l-1.455,0.242l-1.293-1.213c0,0-0.728-1.455-0.728-1.859c0-0.403,0-2.182,0-2.182
		L299.244,399.128z"/>
</g>
<g>
	<path fill="none" stroke="#000000" stroke-miterlimit="10" d="M186.021,537.291c-0.064,0.469,0.465,1.078,0.895,1.016
		c0.255-1.059-0.301-1.753-0.642-2.703c-0.303-0.846-0.513-1.625-0.871-2.472c-0.427-1.009-2.331-4.346-3.406-2.155
		c-0.076,0.154-0.066,0.208-0.186,0.297c-0.015,0.361-0.261,0.589-0.322,0.943c-0.034,0.008-0.067,0.014-0.101,0.021
		c-0.263,0.603-0.681,1.63-1.289,1.905c-0.802,0.365-1.903-0.023-2.713,0.313c-0.75,0.31-1.266,1.072-1.808,1.679
		c-0.548,0.614-1.339,1.784-2.154,2.005c-0.881,0.237-2.222-0.063-3.081-0.182c-1.038-0.143-2.092-0.184-3.192-0.184
		c-1.99,0-3.185-0.965-4.868-1.643c-0.956-0.385-1.91-0.658-2.848-1.131c-0.723-0.363-1.446-0.613-2.229-0.785
		c-0.873-0.189-2.316-0.193-3.151,0.107c-0.947,0.342-1.729,0.738-2.758,0.933c-1.958,0.37-3.738,0.953-5.727,1.147
		c-1.844,0.18-3.876,0.727-5.787,0.348c-0.726-0.144-1.456-0.354-2.173-0.541c-0.798-0.207-1.113-0.758-2.038-0.717
		c-0.02,0.041-0.073,0.251-0.075,0.292c0.283,0.193,0.64,0.327,0.738,0.654c0.194-0.005,0.237,0.101,0.403,0.14
		c0.013,0.056,0.01,0.104,0.021,0.16c0.295,0.174,0.803,0.229,1.135,0.313c0.409,0.102,0.839,0.154,1.266,0.24
		c0.784,0.156,1.562,0.603,2.274,0.921c1.475,0.66,2.609,2.29,4.407,2.022c0.404-0.684-1.461-1.07-1.92-1.244
		c-0.347-0.131-1.97-0.789-1.872-1.279c0.099-0.492,2.244-0.411,2.657-0.494c0.425-0.084,0.724-0.303,1.159-0.395
		c0.455-0.096,0.904-0.049,1.36-0.147c1.799-0.392,3.649-0.818,5.501-1.069c1.022-0.14,2.085-0.217,3.118-0.318
		c0.479-0.047,1.015-0.047,1.522-0.045c0.516,0,1.065-0.229,1.57-0.125c0.772,0.159,1.625,0.637,2.352,1.012
		c0.972,0.502,1.993,0.947,3.024,1.329c0.859,0.319,1.647,0.784,2.577,0.921c0.932,0.138,1.91,0.118,2.895,0.118
		c1.307,0,2.814,0.213,4.101,0.001c0.479-0.078,0.992-0.381,1.4-0.648c0.479-0.315,0.616-0.83,1-1.111
		c0.021-0.055-0.01-0.11,0.021-0.16c0.688-0.369,0.785-1.193,1.616-1.519c0.848-0.332,1.887-0.277,2.765-0.552
		c0.208-0.333,0.659-0.539,0.899-0.905c0.248-0.379,0.215-0.785,0.496-1.075c0.569-0.588,1.631-0.358,2.282-0.109
		c0.156,0.758,0.751,1.511,1.022,2.234c0.309,0.827,0.372,1.917,0.796,2.639"/>
	<path fill="none" stroke="#000000" stroke-miterlimit="10" d="M161.124,548.745c1.012-0.112,1.875,0.829,2.643,1.155
		c0.288,0.354,1.267,0.504,1.748,0.482c0.492,0.463,1.029,0.794,1.467,1.426c1.086,0.074,1.692,0.967,2.779,0.389
		c0.94-0.499,1.567-0.797,2.696-0.8c0.585-0.001,1.17,0.233,1.751,0.124c0.408-0.078,0.7-0.38,1.083-0.485
		c1.074-0.296,2.776-0.214,3.74,0.255c1.683,0.816,3.645,1.472,5.3,2.443c1.055,0.619,2.122,1.762,3.368,2.135
		c0.236,0.354,0.709,0.641,1.035,0.894c0.277,0.216,0.584,0.616,0.894,0.794c0.125,0.361,0.521,0.775,0.719,1.199
		c0.219,0.469,0.335,0.93,0.437,1.443c0.22,1.11,0.043,2.061-0.167,3.133c-0.221,1.122-0.176,2.159-0.027,3.258
		c0.143,1.057-0.085,2.43,0.253,3.389c0.141,0.4,0.452,0.627,0.434,1.061c0.361,0.252,0.94,1.259,1.242,1.711
		c0.511,0.766,1.069,1.609,1.735,2.275c1.294,1.295,3.071,2.154,4.378,3.491c0.056,0.019,0.104-0.004,0.159,0.018
		c0.385,0.623,1.874,1.075,2.413,0.522c0.712-0.732,0.386-1.719,0.182-2.581c0.459-0.494,0.04-1.467,0.007-2.05
		c-0.056-1.007,0.262-1.646,0.675-2.473c0.34-0.68,0.432-1.412,0.699-2.122c0.22-0.587,0.838-1.11,0.988-1.665
		c1.697-1.209-0.257-3.344-0.866-4.578c-0.162-0.327-0.245-0.752-0.456-1.053c-0.257-0.365-0.574-0.641-0.845-1.012
		c-0.546-0.744-0.614-0.944-0.376-2.001c0.102-0.451,0.094-0.986,0.252-1.425c0.078-0.005,0.144-0.005,0.221,0.002
		c0.274,0.721,0.052,1.025-0.097,1.691c-0.117,0.523-0.255,1.666,0.398,1.805c0.363,0.207,0.584,0.75,0.964,0.965
		c0.33,0.705,0.648,1.383,1.05,2.037c0.428,0.695,1.043,1.443,1.194,2.232c0.365,1.916-1.66,2.768-2.426,4.088
		c-0.877,1.51-0.892,3.555-0.711,5.316c0.049,0.479,0.208,0.867,0.301,1.326c0.093,0.461,0.024,0.933,0.121,1.387
		c0.069,0.322,0.377,0.991,0.182,1.388c-0.196,0.399-0.744,0.317-1.15,0.357c-0.776,0.077-1.402,0.091-2.032-0.374
		c-0.557-0.41-1.047-0.984-1.523-1.369c-0.58-0.47-1.108-0.963-1.566-1.633c-0.375-0.549-0.909-1.192-1.557-1.394
		c-0.271-0.405-0.875-0.718-1.321-1.09c-0.412-0.343-0.765-0.862-1.21-1.141c-0.104-0.295-0.442-0.517-0.503-0.884
		c-0.154-0.075-0.189-0.182-0.341-0.262c-0.13-0.451-0.554-1.723-1.026-1.989c-0.134-0.372-0.432-0.693-0.538-1.089
		c-0.116-0.43-0.056-1.121-0.077-1.551c-0.034-0.688,0.079-1.393-0.057-2.072c-0.111-0.549-0.241-0.95-0.242-1.547
		c0-0.94,0.326-1.705,0.362-2.652c0.021-0.557-0.008-1.006-0.167-1.484c-0.209-0.631-0.251-1.376-0.495-2.018
		c-0.205-0.541-0.195-0.323-0.59-0.551c-0.755-0.436-1.124-1.043-1.941-1.447c-0.453-0.223-0.875-0.299-1.328-0.48
		c-0.561-0.226-0.541-0.449-0.916-0.82c-1.166-1.155-3.242-1.521-4.75-2.001c-0.359-0.114-0.651-0.409-1.015-0.493
		c-0.385-0.467-1.854-0.93-2.482-1.014c-1.041-0.141-1.658,0.637-2.532,0.949c-0.908,0.323-1.951,0.17-2.835,0.509
		c-0.849,0.326-2.152,0.489-3.01,0.169c-0.557-0.208-1.246-0.638-1.771-1.01c-0.598-0.423-1.16-0.508-1.802-0.787
		c-0.854-0.369-1.908-0.885-2.835-1.262c-0.832-0.338-1.208-1.105-0.045-1.161"/>
	<path fill="none" stroke="#000000" stroke-miterlimit="10" d="M187.95,539.401c0.156-0.647-0.692-0.603-1.076-0.653
		c-0.045,0.81,1.079,1.86,1.789,1.972c0.116-0.81-0.583-0.966-0.713-1.62"/>
	<path fill="none" stroke="#000000" stroke-miterlimit="10" d="M201.785,552.875c0.022-0.328-0.254-0.652-0.367-0.928
		c-0.068-0.168-0.216-0.611-0.408-0.709c-0.406-0.209-0.378,0.31-0.309,0.55c0.085,0.293,0.409,0.497,0.425,0.81
		c0.134,0.121,0.126,0.412,0.275,0.541c0.287,0.25,0.452-0.002,0.413-0.294"/>
	<path fill="none" stroke="#000000" stroke-miterlimit="10" d="M202.75,555.285c0.007,0.191-0.832,1.541-0.361,1.51
		c0.183-0.012,0.4-0.551,0.446-0.671c0.091-0.241,0.106-0.581-0.03-0.803c-0.03-0.009-0.054-0.001-0.085-0.005"/>
	<path fill="none" stroke="#000000" stroke-miterlimit="10" d="M200.76,558.09c-0.372-0.047-0.87,0.654-0.512,0.753
		c0.281,0.078,0.728-0.514,0.537-0.748c-0.08-0.007-0.186-0.022-0.266-0.005"/>
</g>
</svg>
